<svg xmlns="http://www.w3.org/2000/svg" version="1.1" xmlns:xlink="http://www.w3.org/1999/xlink" xmlns:svgjs="http://svgjs.dev/svgjs" width="2000" height="4186" viewBox="0 0 2000 4186"><g transform="matrix(1,0,0,1,-0.6246928667956126,1.6947368421051578)"><svg viewBox="0 0 118 247" data-background-color="#ff0000" preserveAspectRatio="xMidYMid meet" height="4186" width="2000" xmlns="http://www.w3.org/2000/svg" xmlns:xlink="http://www.w3.org/1999/xlink"><g id="tight-bounds" transform="matrix(1,0,0,1,0.0368568791409416,-0.09999999999999432)"><svg viewBox="0 0 117.92628624171815 247.2" height="247.2" width="117.92628624171815"><g><svg viewBox="0 0 256.0436941424802 536.7251289698456" height="247.2" width="117.92628624171815"><g transform="matrix(1,0,0,1,0,221.7159381904161)"><svg viewBox="0 0 256.0436941424802 315.0091907794295" height="315.0091907794295" width="256.0436941424802"><g><svg viewBox="0 0 256.0436941424802 315.0091907794295" height="315.0091907794295" width="256.0436941424802"><g><svg viewBox="0 0 256.0436941424802 245.672304" height="245.672304" width="256.0436941424802"><g transform="matrix(1,0,0,1,0,0)"><svg width="256.0436941424802" viewBox="4 -37.900001525878906 39.5 37.900001525878906" height="245.672304" data-palette-color="#ffffff"><g class="undefined-text-0" data-fill-palette-color="primary" id="text-0"><path d="M33.1-37.9L43.5-37.9 43.5 0 34.5 0 34.5-25 25.9-12.55 21.4-12.55 13-24.9 13 0 4 0 4-37.9 14.4-37.9 23.75-23.9 33.1-37.9Z" fill="#ffffff" data-fill-palette-color="primary"></path></g></svg></g></svg></g><g transform="matrix(1,0,0,1,48.90434558121372,303.669638839104)"><svg viewBox="0 0 158.23500298005277 11.3395519403255" height="11.3395519403255" width="158.23500298005277"><g transform="matrix(1,0,0,1,0,0)"><svg width="158.23500298005277" viewBox="1.4500000476837158 -36 655.7899780273438 47" height="11.3395519403255" data-palette-color="#ffffff"><path d="M16.1 0L11.9 0 11.9-31.55 1.45-31.55 1.45-35 26.55-35 26.55-31.55 16.1-31.55 16.1 0ZM38.1 0.6L38.1 0.6Q34.55 0.6 31.8-1.03 29.05-2.65 27.47-5.55 25.9-8.45 25.9-12.4L25.9-12.4Q25.9-16.3 27.45-19.23 29-22.15 31.77-23.78 34.55-25.4 38.2-25.4L38.2-25.4Q41.8-25.4 44.42-23.78 47.05-22.15 48.45-19.5 49.85-16.85 49.85-13.8L49.85-13.8Q49.85-13.25 49.82-12.7 49.8-12.15 49.8-11.45L49.8-11.45 30.05-11.45Q30.2-8.6 31.37-6.73 32.55-4.85 34.32-3.9 36.1-2.95 38.1-2.95L38.1-2.95Q40.7-2.95 42.45-4.15 44.2-5.35 45-7.4L45-7.4 49.15-7.4Q48.15-3.95 45.32-1.68 42.5 0.6 38.1 0.6ZM38.1-21.85L38.1-21.85Q35.1-21.85 32.77-20.03 30.45-18.2 30.1-14.7L30.1-14.7 45.7-14.7Q45.55-18.05 43.4-19.95 41.25-21.85 38.1-21.85ZM66.8 0.6L66.8 0.6Q63.25 0.6 60.42-1.03 57.6-2.65 55.97-5.58 54.35-8.5 54.35-12.4L54.35-12.4Q54.35-16.3 55.97-19.23 57.6-22.15 60.42-23.78 63.25-25.4 66.8-25.4L66.8-25.4Q71.2-25.4 74.22-23.1 77.25-20.8 78.05-16.95L78.05-16.95 73.75-16.95Q73.25-19.25 71.3-20.53 69.35-21.8 66.75-21.8L66.75-21.8Q64.65-21.8 62.8-20.75 60.95-19.7 59.8-17.6 58.65-15.5 58.65-12.4L58.65-12.4Q58.65-9.3 59.8-7.2 60.95-5.1 62.8-4.03 64.65-2.95 66.75-2.95L66.75-2.95Q69.35-2.95 71.3-4.23 73.25-5.5 73.75-7.85L73.75-7.85 78.05-7.85Q77.3-4.1 74.25-1.75 71.2 0.6 66.8 0.6ZM88.09 0L83.89 0 83.89-36 88.09-36 88.09-20.55Q89.34-22.85 91.64-24.13 93.94-25.4 96.64-25.4L96.64-25.4Q100.94-25.4 103.54-22.73 106.14-20.05 106.14-14.5L106.14-14.5 106.14 0 101.99 0 101.99-14.05Q101.99-21.8 95.74-21.8L95.74-21.8Q92.49-21.8 90.29-19.48 88.09-17.15 88.09-12.85L88.09-12.85 88.09 0ZM128.19 0L123.79 0 136.69-35 141.14-35 153.99 0 149.54 0 146.34-9 131.44-9 128.19 0ZM138.89-29.7L132.69-12.4 145.09-12.4 138.89-29.7ZM163.14 11L158.94 11 158.94-24.8 162.74-24.8 163.14-20.7Q164.34-22.5 166.56-23.95 168.79-25.4 172.24-25.4L172.24-25.4Q175.94-25.4 178.69-23.7 181.44-22 182.96-19.05 184.49-16.1 184.49-12.35L184.49-12.35Q184.49-8.6 182.96-5.68 181.44-2.75 178.66-1.07 175.89 0.6 172.19 0.6L172.19 0.6Q169.14 0.6 166.76-0.65 164.39-1.9 163.14-4.15L163.14-4.15 163.14 11ZM171.74-3.05L171.74-3.05Q174.24-3.05 176.14-4.23 178.04-5.4 179.14-7.5 180.24-9.6 180.24-12.4L180.24-12.4Q180.24-15.2 179.14-17.3 178.04-19.4 176.14-20.58 174.24-21.75 171.74-21.75L171.74-21.75Q169.24-21.75 167.34-20.58 165.44-19.4 164.34-17.3 163.24-15.2 163.24-12.4L163.24-12.4Q163.24-9.6 164.34-7.5 165.44-5.4 167.34-4.23 169.24-3.05 171.74-3.05ZM194.53 11L190.33 11 190.33-24.8 194.13-24.8 194.53-20.7Q195.73-22.5 197.96-23.95 200.18-25.4 203.63-25.4L203.63-25.4Q207.33-25.4 210.08-23.7 212.83-22 214.36-19.05 215.88-16.1 215.88-12.35L215.88-12.35Q215.88-8.6 214.36-5.68 212.83-2.75 210.06-1.07 207.28 0.6 203.58 0.6L203.58 0.6Q200.53 0.6 198.16-0.65 195.78-1.9 194.53-4.15L194.53-4.15 194.53 11ZM203.13-3.05L203.13-3.05Q205.63-3.05 207.53-4.23 209.43-5.4 210.53-7.5 211.63-9.6 211.63-12.4L211.63-12.4Q211.63-15.2 210.53-17.3 209.43-19.4 207.53-20.58 205.63-21.75 203.13-21.75L203.13-21.75Q200.63-21.75 198.73-20.58 196.83-19.4 195.73-17.3 194.63-15.2 194.63-12.4L194.63-12.4Q194.63-9.6 195.73-7.5 196.83-5.4 198.73-4.23 200.63-3.05 203.13-3.05ZM247.13 0L242.43 0.05 232.83-35 237.33-35 244.88-4.95 253.48-35 258.13-35 266.48-4.95 274.13-35 278.63-35 268.83 0 264.03 0 255.68-28.9 247.13 0ZM291.93 0.6L291.93 0.6Q288.38 0.6 285.63-1.03 282.88-2.65 281.3-5.55 279.73-8.45 279.73-12.4L279.73-12.4Q279.73-16.3 281.28-19.23 282.83-22.15 285.6-23.78 288.38-25.4 292.03-25.4L292.03-25.4Q295.63-25.4 298.25-23.78 300.88-22.15 302.28-19.5 303.68-16.85 303.68-13.8L303.68-13.8Q303.68-13.25 303.65-12.7 303.63-12.15 303.63-11.45L303.63-11.45 283.88-11.45Q284.03-8.6 285.2-6.73 286.38-4.85 288.15-3.9 289.93-2.95 291.93-2.95L291.93-2.95Q294.53-2.95 296.28-4.15 298.03-5.35 298.83-7.4L298.83-7.4 302.98-7.4Q301.98-3.95 299.15-1.68 296.33 0.6 291.93 0.6ZM291.93-21.85L291.93-21.85Q288.93-21.85 286.6-20.03 284.28-18.2 283.93-14.7L283.93-14.7 299.53-14.7Q299.38-18.05 297.23-19.95 295.08-21.85 291.93-21.85ZM322.47 0.6L322.47 0.6Q319.42 0.6 317.05-0.65 314.67-1.9 313.42-4.15L313.42-4.15 313.02 0 309.22 0 309.22-36 313.42-36 313.42-20.7Q314.62-22.5 316.85-23.95 319.07-25.4 322.52-25.4L322.52-25.4Q326.22-25.4 328.97-23.7 331.72-22 333.25-19.05 334.77-16.1 334.77-12.35L334.77-12.35Q334.77-8.6 333.25-5.68 331.72-2.75 328.95-1.07 326.17 0.6 322.47 0.6ZM322.02-3.05L322.02-3.05Q324.52-3.05 326.42-4.23 328.32-5.4 329.42-7.5 330.52-9.6 330.52-12.4L330.52-12.4Q330.52-15.2 329.42-17.3 328.32-19.4 326.42-20.58 324.52-21.75 322.02-21.75L322.02-21.75Q319.52-21.75 317.62-20.58 315.72-19.4 314.62-17.3 313.52-15.2 313.52-12.4L313.52-12.4Q313.52-9.6 314.62-7.5 315.72-5.4 317.62-4.23 319.52-3.05 322.02-3.05ZM364.87 0L354.12 0 354.12-35 364.87-35Q374.12-35 378.49-30.3 382.87-25.6 382.87-17.4L382.87-17.4Q382.87-9.35 378.49-4.67 374.12 0 364.87 0L364.87 0ZM358.32-31.5L358.32-3.5 364.77-3.5Q369.87-3.5 372.89-5.18 375.92-6.85 377.22-9.98 378.52-13.1 378.52-17.4L378.52-17.4Q378.52-21.8 377.22-24.95 375.92-28.1 372.89-29.8 369.87-31.5 364.77-31.5L364.77-31.5 358.32-31.5ZM399.82 0.6L399.82 0.6Q396.27 0.6 393.52-1.03 390.77-2.65 389.19-5.55 387.62-8.45 387.62-12.4L387.62-12.4Q387.62-16.3 389.17-19.23 390.72-22.15 393.49-23.78 396.27-25.4 399.92-25.4L399.92-25.4Q403.52-25.4 406.14-23.78 408.77-22.15 410.17-19.5 411.57-16.85 411.57-13.8L411.57-13.8Q411.57-13.25 411.54-12.7 411.52-12.15 411.52-11.45L411.52-11.45 391.77-11.45Q391.92-8.6 393.09-6.73 394.27-4.85 396.04-3.9 397.82-2.95 399.82-2.95L399.82-2.95Q402.42-2.95 404.17-4.15 405.92-5.35 406.72-7.4L406.72-7.4 410.87-7.4Q409.87-3.95 407.04-1.68 404.22 0.6 399.82 0.6ZM399.82-21.85L399.82-21.85Q396.82-21.85 394.49-20.03 392.17-18.2 391.82-14.7L391.82-14.7 407.42-14.7Q407.27-18.05 405.12-19.95 402.97-21.85 399.82-21.85ZM428.11 0L423.26 0 413.86-24.8 418.26-24.8 425.71-4.05 433.21-24.8 437.51-24.8 428.11 0ZM452.06 0.6L452.06 0.6Q448.51 0.6 445.76-1.03 443.01-2.65 441.44-5.55 439.86-8.45 439.86-12.4L439.86-12.4Q439.86-16.3 441.41-19.23 442.96-22.15 445.74-23.78 448.51-25.4 452.16-25.4L452.16-25.4Q455.76-25.4 458.39-23.78 461.01-22.15 462.41-19.5 463.81-16.85 463.81-13.8L463.81-13.8Q463.81-13.25 463.79-12.7 463.76-12.15 463.76-11.45L463.76-11.45 444.01-11.45Q444.16-8.6 445.34-6.73 446.51-4.85 448.29-3.9 450.06-2.95 452.06-2.95L452.06-2.95Q454.66-2.95 456.41-4.15 458.16-5.35 458.96-7.4L458.96-7.4 463.11-7.4Q462.11-3.95 459.29-1.68 456.46 0.6 452.06 0.6ZM452.06-21.85L452.06-21.85Q449.06-21.85 446.74-20.03 444.41-18.2 444.06-14.7L444.06-14.7 459.66-14.7Q459.51-18.05 457.36-19.95 455.21-21.85 452.06-21.85ZM473.56 0L469.36 0 469.36-36 473.56-36 473.56 0ZM491.76 0.6L491.76 0.6Q488.26 0.6 485.46-1 482.66-2.6 481.03-5.53 479.41-8.45 479.41-12.4L479.41-12.4Q479.41-16.35 481.06-19.28 482.71-22.2 485.53-23.8 488.36-25.4 491.86-25.4L491.86-25.4Q495.36-25.4 498.16-23.8 500.96-22.2 502.58-19.28 504.21-16.35 504.21-12.4L504.21-12.4Q504.21-8.45 502.56-5.53 500.91-2.6 498.08-1 495.26 0.6 491.76 0.6ZM491.76-3L491.76-3Q493.91-3 495.76-4.05 497.61-5.1 498.76-7.2 499.91-9.3 499.91-12.4L499.91-12.4Q499.91-15.5 498.78-17.6 497.66-19.7 495.81-20.75 493.96-21.8 491.86-21.8L491.86-21.8Q489.71-21.8 487.86-20.75 486.01-19.7 484.86-17.6 483.71-15.5 483.71-12.4L483.71-12.4Q483.71-9.3 484.86-7.2 486.01-5.1 487.83-4.05 489.66-3 491.76-3ZM514.25 11L510.05 11 510.05-24.8 513.85-24.8 514.25-20.7Q515.45-22.5 517.68-23.95 519.9-25.4 523.35-25.4L523.35-25.4Q527.05-25.4 529.8-23.7 532.55-22 534.08-19.05 535.6-16.1 535.6-12.35L535.6-12.35Q535.6-8.6 534.08-5.68 532.55-2.75 529.78-1.07 527 0.6 523.3 0.6L523.3 0.6Q520.25 0.6 517.88-0.65 515.5-1.9 514.25-4.15L514.25-4.15 514.25 11ZM522.85-3.05L522.85-3.05Q525.35-3.05 527.25-4.23 529.15-5.4 530.25-7.5 531.35-9.6 531.35-12.4L531.35-12.4Q531.35-15.2 530.25-17.3 529.15-19.4 527.25-20.58 525.35-21.75 522.85-21.75L522.85-21.75Q520.35-21.75 518.45-20.58 516.55-19.4 515.45-17.3 514.35-15.2 514.35-12.4L514.35-12.4Q514.35-9.6 515.45-7.5 516.55-5.4 518.45-4.23 520.35-3.05 522.85-3.05ZM545.65 0L541.45 0 541.45-24.8 545.25-24.8 545.55-21.2Q546.75-23.2 548.75-24.3 550.75-25.4 553.25-25.4L553.25-25.4Q556.2-25.4 558.33-24.2 560.45-23 561.6-20.55L561.6-20.55Q562.9-22.8 565.17-24.1 567.45-25.4 570.1-25.4L570.1-25.4Q574.55-25.4 577.2-22.73 579.85-20.05 579.85-14.5L579.85-14.5 579.85 0 575.7 0 575.7-14.05Q575.7-17.9 574.15-19.85 572.6-21.8 569.7-21.8L569.7-21.8Q566.7-21.8 564.73-19.48 562.75-17.15 562.75-12.85L562.75-12.85 562.75 0 558.55 0 558.55-14.05Q558.55-17.9 557-19.85 555.45-21.8 552.55-21.8L552.55-21.8Q549.6-21.8 547.63-19.48 545.65-17.15 545.65-12.85L545.65-12.85 545.65 0ZM597.35 0.6L597.35 0.6Q593.8 0.6 591.05-1.03 588.3-2.65 586.72-5.55 585.15-8.45 585.15-12.4L585.15-12.4Q585.15-16.3 586.7-19.23 588.25-22.15 591.02-23.78 593.8-25.4 597.45-25.4L597.45-25.4Q601.05-25.4 603.67-23.78 606.3-22.15 607.7-19.5 609.1-16.85 609.1-13.8L609.1-13.8Q609.1-13.25 609.07-12.7 609.05-12.15 609.05-11.45L609.05-11.45 589.3-11.45Q589.45-8.6 590.62-6.73 591.8-4.85 593.57-3.9 595.35-2.95 597.35-2.95L597.35-2.95Q599.95-2.95 601.7-4.15 603.45-5.35 604.25-7.4L604.25-7.4 608.4-7.4Q607.4-3.95 604.57-1.68 601.75 0.6 597.35 0.6ZM597.35-21.85L597.35-21.85Q594.35-21.85 592.02-20.03 589.7-18.2 589.35-14.7L589.35-14.7 604.95-14.7Q604.8-18.05 602.65-19.95 600.5-21.85 597.35-21.85ZM618.84 0L614.64 0 614.64-24.8 618.44-24.8 618.69-20.35Q619.89-22.7 622.14-24.05 624.39-25.4 627.24-25.4L627.24-25.4Q631.64-25.4 634.27-22.73 636.89-20.05 636.89-14.5L636.89-14.5 636.89 0 632.69 0 632.69-14.05Q632.69-21.8 626.29-21.8L626.29-21.8Q623.09-21.8 620.97-19.48 618.84-17.15 618.84-12.85L618.84-12.85 618.84 0ZM656.84 0L653.04 0Q649.64 0 647.69-1.65 645.74-3.3 645.74-7.6L645.74-7.6 645.74-21.25 641.44-21.25 641.44-24.8 645.74-24.8 646.29-30.75 649.94-30.75 649.94-24.8 657.24-24.8 657.24-21.25 649.94-21.25 649.94-7.6Q649.94-5.25 650.89-4.42 651.84-3.6 654.24-3.6L654.24-3.6 656.84-3.6 656.84 0Z" opacity="1" transform="matrix(1,0,0,1,0,0)" fill="#ffffff" class="undefined-text-1" data-fill-palette-color="secondary" id="text-1"></path></svg></g></svg></g></svg></g></svg></g><g transform="matrix(1,0,0,1,75.16121281513605,0)"><svg viewBox="0 0 105.7212685122081 105.7212685122081" height="105.7212685122081" width="105.7212685122081"><g><svg></svg></g><g id="icon-0"><svg viewBox="0 0 105.7212685122081 105.7212685122081" height="105.7212685122081" width="105.7212685122081"><g><path d="M0 52.861c0-29.194 23.667-52.861 52.861-52.861 29.194 0 52.861 23.667 52.86 52.861 0 29.194-23.667 52.861-52.86 52.86-29.194 0-52.861-23.667-52.861-52.86zM52.861 83.566c16.958 0 30.706-13.747 30.705-30.705 0-16.958-13.747-30.706-30.705-30.706-16.958 0-30.706 13.747-30.706 30.706 0 16.958 13.747 30.706 30.706 30.705z" data-fill-palette-color="accent" fill="#ffffff" stroke="transparent"></path></g><g transform="matrix(1,0,0,1,60.30579742353466,57.629758881612844)"><svg viewBox="0 0 -14.890326334861228 -9.538249251017593" height="-9.538249251017593" width="-14.890326334861228"><g><svg xmlns="http://www.w3.org/2000/svg" xmlns:xlink="http://www.w3.org/1999/xlink" version="1.1" x="0" y="0" viewBox="111.69998931884766 20.884868621826172 92.91011810302734 59.515140533447266" enable-background="new 109 0 100 100" xml:space="preserve" height="-9.538249251017593" width="-14.890326334861228" class="icon-s-0" data-fill-palette-color="accent" id="s-0"><g fill="#ffffff" data-fill-palette-color="accent"><path d="M138.2 33.6c3.9-1.7 2.9-4.2 4.6-5.1 1.1-0.6 1.9 0.3 2.6 0.5-0.1 0.4-0.1 0.8-0.2 1.3-0.3 5.5 3.9 10.2 9.4 10.5 5.5 0.3 10.2-3.9 10.5-9.4 0.3-5.5-3.9-10.2-9.4-10.5-3.7-0.2-7 1.6-8.9 4.4-0.5-1-1.5-2.5-3.1-3-2.8-0.9-6 0.4-7.7 2.6-1.7 2.2-1.7 6.6-6.4 7.6C127.6 33 134.7 35.2 138.2 33.6z" fill="#ffffff" data-fill-palette-color="accent"></path><path d="M176.9 67.4c0-3-2.3-4.4-5.2-4.4h-15.9L149 44.7l0 0c-1-3.2-4-5.6-7.6-5.6-1.3 0-2.5 0.3-3.6 0.9l0 0c-14.5 7.3-22.9 20.7-26.1 40.4l19 0c0.5-8.3 2-18 8.8-23.8l7.8 11.7 0 0c0.9 1.7 2.7 3 4.7 3h19.6C174.7 71.2 176.9 70.4 176.9 67.4z" fill="#ffffff" data-fill-palette-color="accent"></path></g><path d="M181.5 76.3c-0.4-0.8-2.3-4-6.2-4-4.4 0-6.2 4.1-6.3 4.2-0.1 0.3-0.1 0.7 0.1 0.9 0.2 0.3 0.5 0.5 0.8 0.5h10.7c0 0 0 0 0 0 0.6 0 1-0.4 1-1C181.7 76.7 181.6 76.4 181.5 76.3z" fill="#ffffff" data-fill-palette-color="accent"></path><path d="M202.5 28.5c-1.8-0.8-3.8 0.1-4.6 1.9l-15.1 35.4c-0.8 1.8 0.1 3.8 1.9 4.6 0.4 0.2 0.9 0.3 1.4 0.3 1.4 0 2.7-0.8 3.2-2.1l2.7-6.4 5.1 10.6H190c-1.4 0-2.5 1.1-2.5 2.5s1.1 2.5 2.5 2.5h11.1c0.9 0 1.7-0.4 2.1-1.2 0.5-0.7 0.5-1.6 0.1-2.4L194.6 56l9.7-22.9C205.1 31.3 204.3 29.3 202.5 28.5z" fill="#ffffff" data-fill-palette-color="accent"></path></svg></g></svg></g></svg></g></svg></g><g></g></svg></g><defs></defs></svg><rect width="117.92628624171815" height="247.2" fill="none" stroke="none" visibility="hidden"></rect></g></svg></g></svg>